<svg xmlns="http://www.w3.org/2000/svg" viewBox="0 0 320 64" fill="none">
  <!-- Compact mower icon -->
  <g transform="translate(4, 4) scale(0.11)">
    <!-- Grass -->
    <path d="M40 355 Q256 315 472 355 L472 390 Q256 350 40 390 Z" fill="#22c55e" opacity="0.7"/>
    <!-- Body -->
    <rect x="156" y="220" rx="24" ry="24" width="200" height="100" fill="#cbd5e1" stroke="#94a3b8" stroke-width="3"/>
    <rect x="196" y="208" rx="8" ry="8" width="120" height="20" fill="#94a3b8"/>
    <!-- Wheels -->
    <circle cx="196" cy="324" r="22" fill="#e2e8f0" stroke="#94a3b8" stroke-width="3"/>
    <circle cx="316" cy="324" r="22" fill="#e2e8f0" stroke="#94a3b8" stroke-width="3"/>
    <!-- LiDAR -->
    <circle cx="256" cy="208" r="12" fill="#16a34a"/>
    <circle cx="256" cy="208" r="6" fill="#1a1a1a"/>
    <line x1="256" y1="196" x2="230" y2="160" stroke="#16a34a" stroke-width="2" opacity="0.6"/>
    <line x1="256" y1="196" x2="256" y2="155" stroke="#16a34a" stroke-width="2" opacity="0.7"/>
    <line x1="256" y1="196" x2="282" y2="160" stroke="#16a34a" stroke-width="2" opacity="0.6"/>
    <!-- GPS -->
    <line x1="320" y1="208" x2="320" y2="175" stroke="#64748b" stroke-width="3"/>
    <circle cx="320" cy="170" r="6" fill="#0284c7"/>
    <!-- LED -->
    <circle cx="192" cy="260" r="5" fill="#16a34a"/>
  </g>
  <!-- Text -->
  <text x="68" y="40" font-family="-apple-system, BlinkMacSystemFont, 'Segoe UI', sans-serif" font-size="26" font-weight="800" fill="#1e293b">
    Mowgli<tspan fill="#16a34a">Next</tspan>
  </text>
</svg>
