<svg xmlns="http://www.w3.org/2000/svg" viewBox="0 0 512 512" fill="none">
  <!-- Grass/garden base -->
  <path d="M60 340 Q256 300 452 340 L452 375 Q256 335 60 375 Z" fill="#16a34a" opacity="0.6"/>
  <path d="M40 355 Q256 315 472 355 L472 390 Q256 350 40 390 Z" fill="#22c55e" opacity="0.8"/>

  <!-- Robot mower body -->
  <rect x="156" y="220" rx="24" ry="24" width="200" height="100" fill="#334155"/>
  <rect x="156" y="220" rx="24" ry="24" width="200" height="100" stroke="#475569" stroke-width="3"/>

  <!-- Mower top detail -->
  <rect x="196" y="208" rx="8" ry="8" width="120" height="20" fill="#475569"/>

  <!-- Wheels -->
  <circle cx="196" cy="324" r="22" fill="#1e293b" stroke="#475569" stroke-width="3"/>
  <circle cx="196" cy="324" r="10" fill="#334155"/>
  <circle cx="316" cy="324" r="22" fill="#1e293b" stroke="#475569" stroke-width="3"/>
  <circle cx="316" cy="324" r="10" fill="#334155"/>

  <!-- LiDAR sensor on top -->
  <circle cx="256" cy="208" r="12" fill="#22c55e"/>
  <circle cx="256" cy="208" r="6" fill="white"/>

  <!-- LiDAR scan rays -->
  <line x1="256" y1="196" x2="200" y2="160" stroke="#22c55e" stroke-width="2" opacity="0.4"/>
  <line x1="256" y1="196" x2="230" y2="152" stroke="#22c55e" stroke-width="2" opacity="0.5"/>
  <line x1="256" y1="196" x2="256" y2="148" stroke="#22c55e" stroke-width="2" opacity="0.6"/>
  <line x1="256" y1="196" x2="282" y2="152" stroke="#22c55e" stroke-width="2" opacity="0.5"/>
  <line x1="256" y1="196" x2="312" y2="160" stroke="#22c55e" stroke-width="2" opacity="0.4"/>

  <!-- LiDAR scan arc -->
  <path d="M192 156 Q256 128 320 156" stroke="#22c55e" stroke-width="2" fill="none" opacity="0.3"/>

  <!-- GPS antenna -->
  <line x1="320" y1="208" x2="320" y2="172" stroke="#94a3b8" stroke-width="3"/>
  <circle cx="320" cy="168" r="6" fill="#38bdf8"/>
  <circle cx="320" cy="168" r="3" fill="white"/>

  <!-- Status LED -->
  <circle cx="192" cy="260" r="5" fill="#22c55e"/>

  <!-- Mowing pattern lines -->
  <line x1="80" y1="370" x2="180" y2="365" stroke="#16a34a" stroke-width="2" opacity="0.5"/>
  <line x1="80" y1="378" x2="180" y2="373" stroke="#16a34a" stroke-width="2" opacity="0.5"/>
  <line x1="330" y1="365" x2="432" y2="370" stroke="#16a34a" stroke-width="2" opacity="0.5"/>
  <line x1="330" y1="373" x2="432" y2="378" stroke="#16a34a" stroke-width="2" opacity="0.5"/>
</svg>
